<?xml version="1.0" encoding="utf-8"?>
<!-- Generator: Adobe Illustrator 27.5.0, SVG Export Plug-In . SVG Version: 6.00 Build 0)  -->
<svg version="1.1" id="圖層_1" xmlns="http://www.w3.org/2000/svg" xmlns:xlink="http://www.w3.org/1999/xlink" x="0px" y="0px"
	 viewBox="0 0 140 24" style="enable-background:new 0 0 140 24;" xml:space="preserve">
<style type="text/css">
	.st0{fill-rule:evenodd;clip-rule:evenodd;fill:#32302C;}
	.st1{fill:#E40505;}
</style>
<path class="st0" d="M0.7,0.6v22.5h5v-8.6h1.5l6.5,8.6h6.1l-7.8-10c1.3-0.7,2.3-1.5,3-2.4l0,0l0,0c0.9-1.2,1.3-2.6,1.3-4.1
	c0-1.2-0.3-2.3-0.9-3.2c-0.6-0.9-1.5-1.6-2.6-2c-1.1-0.5-3-0.7-5.4-0.7H0.7z M6.5,10.3H5.7V4.8h1c1,0,1.8,0.1,2.4,0.2
	c0.6,0.1,1.1,0.2,1.3,0.4C10.8,5.6,11.1,6,11.1,7c0,1-0.4,1.7-1.1,2.3C9.2,9.9,8.1,10.3,6.5,10.3z M27,0.6v22.5h16.5v-4.2H32v-5.5
	h9.2V9.3H32V4.8h10.8V0.6H27z M81.6,18.9v4.2h5v-4.2V4.8V0.6h-5v4.2V18.9z M122.9,0.6v22.5h16.5v-4.2h-11.5v-5.5h9.2V9.3h-9.2V4.8
	h10.8V0.6H122.9z"/>
<path class="st1" d="M51.2,23.1L60,0.6h4.4l8.9,22.5H68L66,17.9l-1.6-4.2l-2.5-6.5l-6.1,15.8H51.2z"/>
<path class="st0" d="M112.8,8.2l3.2-3.2c-2.2-3-5.7-4.9-9.6-4.9c-6.5,0-11.9,5.3-11.9,11.9c0,6.5,5.3,11.9,11.9,11.9
	c3.8,0,7.2-1.8,9.4-4.6l-3.1-3.1c-1.3,1.8-3.4,3-5.7,3c-3.9,0-7-3.1-7-7c0-3.9,3.1-7,7-7C109.4,5,111.6,6.3,112.8,8.2z"/>
</svg>
