<svg width="94" height="17" viewBox="0 0 94 17" fill="none" xmlns="http://www.w3.org/2000/svg">
<path fill-rule="evenodd" clip-rule="evenodd" d="M0.823441 0.917725V15.9H4.13965V10.1636H5.15377L9.50436 15.9H13.5961L8.4057 9.22325C9.25823 8.7388 9.92736 8.20328 10.3784 7.60417L10.3793 7.60289L10.3803 7.6016C10.9513 6.83457 11.2188 5.89998 11.2188 4.83706C11.2188 4.04063 11.0275 3.3245 10.6145 2.72055C10.2029 2.11864 9.60121 1.67216 8.85279 1.36188C8.10579 1.04515 6.88172 0.917725 5.27989 0.917725H0.823441ZM4.65684 7.36304H4.13965V3.70757H4.83946C5.49354 3.70757 6.02741 3.74341 6.44793 3.81024C6.87558 3.8782 7.14876 3.97263 7.3077 4.06573C7.56003 4.21352 7.76289 4.51069 7.76289 5.18081C7.76289 5.84949 7.51455 6.3467 7.00305 6.7317C6.47315 7.13055 5.71226 7.36304 4.65684 7.36304ZM18.3431 0.917725V15.9H29.3507V13.1101H21.6593V9.47612H27.7608V6.68628H21.6593V3.70757H28.8565V0.917725H18.3431ZM54.7389 13.1101V15.9H58.0659V13.1101V3.70757V0.917725H54.7389V3.70757V13.1101ZM82.2465 0.917725V15.9H93.2541V13.1101H85.5627V9.47612H91.6643V6.68628H85.5627V3.70757H92.76V0.917725H82.2465Z" fill="#666666"/>
<path d="M34.4459 15.8999L40.3547 0.917725H43.2876L49.1964 15.8999H45.6546L44.3548 12.4517L43.2635 9.66186L41.6141 5.35932L37.5663 15.8999H34.4459Z" fill="#666666"/>
<path fill-rule="evenodd" clip-rule="evenodd" d="M75.5655 5.93449L77.7136 3.78643C76.2792 1.7959 73.9409 0.5 71.3 0.5C66.9369 0.5 63.4 4.03696 63.4 8.4C63.4 12.763 66.9369 16.3 71.3 16.3C73.8383 16.3 76.0971 15.1029 77.5424 13.2424L75.4844 11.1844C74.6398 12.3834 73.2447 13.1667 71.6667 13.1667C69.0893 13.1667 67 11.0773 67 8.5C67 5.92267 69.0893 3.83333 71.6667 3.83333C73.2963 3.83333 74.7309 4.66866 75.5655 5.93449Z" fill="#666666"/>
</svg>
