<?xml version="1.0" encoding="utf-8"?>
<!-- Generator: Adobe Illustrator 27.6.1, SVG Export Plug-In . SVG Version: 6.00 Build 0)  -->
<svg version="1.1" id="圖層_1" xmlns="http://www.w3.org/2000/svg" xmlns:xlink="http://www.w3.org/1999/xlink" x="0px" y="0px"
	 viewBox="0 0 48 48" style="enable-background:new 0 0 48 48;" xml:space="preserve">
<style type="text/css">
	.st0{fill:#32302C;}
</style>
<path class="st0" d="M24,23.4c1.2,0,2.1-0.4,3-1.2c0.8-0.8,1.2-1.8,1.2-3c0-1.2-0.4-2.1-1.2-3c-0.8-0.8-1.8-1.2-3-1.2
	c-1.2,0-2.1,0.4-3,1.2c-0.8,0.8-1.2,1.8-1.2,3c0,1.2,0.4,2.1,1.2,3C21.9,23,22.8,23.4,24,23.4z M24,43.3c5.3-4.8,9.2-9.2,11.8-13.2
	c2.5-3.9,3.8-7.4,3.8-10.4c0-4.7-1.5-8.6-4.5-11.6c-3-3-6.7-4.5-11.1-4.5s-8.1,1.5-11.1,4.5c-3,3-4.5,6.9-4.5,11.6
	c0,3,1.3,6.5,3.9,10.4S18.8,38.4,24,43.3z M24,48c-6.4-5.5-11.2-10.6-14.4-15.3s-4.8-9.1-4.8-13c0-6,1.9-10.8,5.8-14.3S18.9,0,24,0
	s9.6,1.8,13.4,5.3s5.8,8.3,5.8,14.3c0,4-1.6,8.3-4.8,13S30.4,42.5,24,48z"/>
</svg>
