<?xml version="1.0" encoding="utf-8"?>
<!-- Generator: Adobe Illustrator 27.6.1, SVG Export Plug-In . SVG Version: 6.00 Build 0)  -->
<svg version="1.1" id="圖層_1" xmlns="http://www.w3.org/2000/svg" xmlns:xlink="http://www.w3.org/1999/xlink" x="0px" y="0px"
	 viewBox="0 0 48 48" style="enable-background:new 0 0 48 48;" xml:space="preserve">
<style type="text/css">
	.st0{fill:#FFFFFF;}
</style>
<path class="st0" d="M24,23.2c-3.3,0-6-1-8.1-3.1s-3.2-4.8-3.2-8.1s1.1-6,3.2-8.1s4.8-3.1,8.1-3.1s6,1,8.1,3.1
	c2.1,2.1,3.2,4.8,3.2,8.1s-1,6-3.2,8.1C30,22.2,27.3,23.2,24,23.2z M0,47.3v-7c0-1.9,0.5-3.5,1.4-4.9c1-1.3,2.2-2.4,3.7-3.1
	c3.3-1.5,6.6-2.6,9.6-3.4s6.2-1.1,9.3-1.1s6.2,0.4,9.2,1.2c3.1,0.8,6.2,1.9,9.6,3.4c1.6,0.7,2.8,1.7,3.8,3.1c0.9,1.3,1.4,3,1.4,4.9
	v7H0z M4.5,42.8h39v-2.5c0-0.8-0.2-1.6-0.7-2.3s-1.1-1.3-1.8-1.6c-3.2-1.5-6.1-2.6-8.8-3.2c-2.6-0.6-5.4-0.9-8.2-0.9
	s-5.6,0.3-8.3,0.9c-2.7,0.6-5.6,1.6-8.8,3.2c-0.7,0.3-1.3,0.9-1.7,1.6c-0.4,0.7-0.7,1.5-0.7,2.3V42.8z M24,18.7c2,0,3.6-0.6,4.8-1.9
	c1.3-1.3,1.9-2.9,1.9-4.8s-0.6-3.6-1.9-4.8S26,5.2,24,5.2s-3.6,0.6-4.8,1.9S17.2,10,17.2,12s0.6,3.6,1.9,4.8
	C20.4,18.1,22,18.7,24,18.7z"/>
</svg>
