<?xml version="1.0" encoding="utf-8"?>
<!-- Generator: Adobe Illustrator 27.6.1, SVG Export Plug-In . SVG Version: 6.00 Build 0)  -->
<svg version="1.1" id="圖層_1" xmlns="http://www.w3.org/2000/svg" xmlns:xlink="http://www.w3.org/1999/xlink" x="0px" y="0px"
	 viewBox="0 0 48 48" style="enable-background:new 0 0 48 48;" xml:space="preserve">
<style type="text/css">
	.st0{fill:#32302C;}
</style>
<path class="st0" d="M24,35.8c0.5,0,0.9-0.2,1.3-0.5s0.5-0.8,0.5-1.3s-0.2-0.9-0.5-1.3s-0.8-0.5-1.3-0.5s-0.9,0.2-1.3,0.5
	c-0.4,0.4-0.5,0.8-0.5,1.3s0.2,0.9,0.5,1.3C23.1,35.6,23.5,35.8,24,35.8z M24,25.8c0.5,0,0.9-0.2,1.3-0.5c0.4-0.4,0.5-0.8,0.5-1.3
	s-0.2-0.9-0.5-1.3s-0.8-0.5-1.3-0.5s-0.9,0.2-1.3,0.5c-0.4,0.4-0.5,0.8-0.5,1.3s0.2,0.9,0.5,1.3C23.1,25.6,23.5,25.8,24,25.8z
	 M24,15.8c0.5,0,0.9-0.2,1.3-0.5s0.5-0.8,0.5-1.3c0-0.5-0.2-0.9-0.5-1.3c-0.4-0.4-0.8-0.5-1.3-0.5s-0.9,0.2-1.3,0.5
	c-0.4,0.4-0.5,0.8-0.5,1.3c0,0.5,0.2,0.9,0.5,1.3C23.1,15.6,23.5,15.8,24,15.8z M44.4,43.2H3.6c-1,0-1.8-0.4-2.5-1.1
	C0.4,41.4,0,40.6,0,39.6v-9.2c1.5-0.3,2.7-1.1,3.7-2.2c1-1.2,1.5-2.6,1.5-4.2c0-1.6-0.5-3-1.5-4.2c-1-1.2-2.2-1.9-3.7-2.2V8.4
	c0-1,0.4-1.8,1.1-2.5s1.6-1.1,2.5-1.1h40.8c1,0,1.8,0.4,2.5,1.1C47.6,6.6,48,7.4,48,8.4v9.2c-1.5,0.3-2.7,1-3.7,2.2
	c-1,1.2-1.5,2.6-1.5,4.2c0,1.6,0.5,3,1.5,4.2c1,1.2,2.2,1.9,3.7,2.2v9.2c0,1-0.4,1.8-1.1,2.5C46.2,42.8,45.4,43.2,44.4,43.2z
	 M44.4,39.6v-6.5c-1.5-1-2.8-2.3-3.7-3.9s-1.4-3.3-1.4-5.2s0.5-3.6,1.4-5.2s2.2-2.9,3.7-3.9V8.4H3.6v6.5c1.6,1,2.8,2.3,3.7,3.9
	s1.4,3.3,1.4,5.2s-0.5,3.6-1.4,5.2S5.2,32,3.6,33.1v6.5H44.4z"/>
</svg>
