<?xml version="1.0" encoding="utf-8"?>
<!-- Generator: Adobe Illustrator 27.6.1, SVG Export Plug-In . SVG Version: 6.00 Build 0)  -->
<svg version="1.1" id="圖層_1" xmlns="http://www.w3.org/2000/svg" xmlns:xlink="http://www.w3.org/1999/xlink" x="0px" y="0px"
	 viewBox="0 0 44 32" style="enable-background:new 0 0 44 32;" xml:space="preserve">
<style type="text/css">
	.st0{fill:#FFFFFF;}
	.st1{fill-rule:evenodd;clip-rule:evenodd;fill:#FFFFFF;}
</style>
<g>
	<path class="st0" d="M9.2,32c-1.6,0-3-0.6-4.2-1.7c-1.2-1.1-1.7-2.5-1.7-4.2H0V3c0-0.8,0.3-1.5,0.9-2.1S2.2,0,3,0h29v8.4h5.2l6.8,9
		v8.7h-3.5c0,1.6-0.6,3-1.7,4.2c-1.1,1.1-2.5,1.7-4.2,1.7c-1.6,0-3-0.6-4.2-1.7c-1.1-1.1-1.7-2.5-1.7-4.2H15.1c0,1.6-0.6,3-1.7,4.2
		C12.2,31.4,10.8,32,9.2,32z M9.2,29c0.8,0,1.5-0.3,2.1-0.9c0.6-0.6,0.9-1.2,0.9-2c0-0.8-0.3-1.5-0.9-2.1c-0.6-0.6-1.2-0.9-2.1-0.9
		c-0.8,0-1.5,0.3-2,0.9s-0.8,1.2-0.8,2.1c0,0.8,0.3,1.5,0.8,2S8.4,29,9.2,29z M3,23.1h1.1c0.6-0.9,1.3-1.6,2.2-2.2
		c0.9-0.5,1.8-0.8,2.9-0.8s2,0.3,2.9,0.8c0.9,0.5,1.6,1.3,2.2,2.1H29V3H3V23.1z M34.5,29c0.8,0,1.5-0.3,2.1-0.9s0.8-1.2,0.8-2
		c0-0.8-0.3-1.5-0.8-2.1s-1.2-0.9-2.1-0.9c-0.8,0-1.5,0.3-2,0.9s-0.9,1.2-0.9,2.1c0,0.8,0.3,1.5,0.9,2S33.8,29,34.5,29z M32,18.8
		h9.3l-5.5-7.4H32V18.8z"/>
	<path class="st1" d="M12.5,6.4v11.2H15v-4.3h0.8l3.2,4.3h3l-3.9-5c0.6-0.4,1.1-0.8,1.5-1.2l0,0l0,0c0.4-0.6,0.6-1.3,0.6-2.1
		c0-0.6-0.1-1.1-0.4-1.6c-0.3-0.5-0.8-0.8-1.3-1C18,6.5,17,6.4,15.8,6.4L12.5,6.4L12.5,6.4z M15.4,11.2H15V8.5h0.5
		c0.5,0,0.9,0.1,1.2,0.1c0.3,0,0.5,0.1,0.6,0.2c0.2,0.1,0.4,0.3,0.4,0.8s-0.2,0.8-0.6,1.1C16.7,11,16.2,11.2,15.4,11.2z"/>
</g>
</svg>
