<?xml version="1.0" encoding="utf-8"?>
<!-- Generator: Adobe Illustrator 27.6.1, SVG Export Plug-In . SVG Version: 6.00 Build 0)  -->
<svg version="1.1" id="圖層_1" xmlns="http://www.w3.org/2000/svg" xmlns:xlink="http://www.w3.org/1999/xlink" x="0px" y="0px"
	 viewBox="0 0 48 48" style="enable-background:new 0 0 48 48;" xml:space="preserve">
<style type="text/css">
	.st0{fill:#A78667;}
</style>
<path class="st0" d="M9.4,48c-1.1,0-2-0.4-2.8-1.2C5.8,46,5.4,45.1,5.4,44V6H2.7V2h12.5V0h17.6v2h12.5v4h-2.7v38
	c0,1.1-0.4,2-1.2,2.8c-0.8,0.8-1.7,1.2-2.8,1.2H9.4z M38.6,6H9.4v38h29.2V6z M16.5,38.3h4V11.7h-4V38.3z M27.5,38.3h4V11.7h-4V38.3z
	 M9.4,6v38V6z"/>
</svg>
