<?xml version="1.0" encoding="utf-8"?>
<!-- Generator: Adobe Illustrator 27.6.1, SVG Export Plug-In . SVG Version: 6.00 Build 0)  -->
<svg version="1.1" id="圖層_1" xmlns="http://www.w3.org/2000/svg" xmlns:xlink="http://www.w3.org/1999/xlink" x="0px" y="0px"
	 viewBox="0 0 48 48" style="enable-background:new 0 0 48 48;" xml:space="preserve">
<style type="text/css">
	.st0{fill:#32302C;}
</style>
<path class="st0" d="M3.5,48c-0.9,0-1.7-0.3-2.4-1s-1-1.5-1-2.4V9.8c0-0.9,0.3-1.7,1-2.4s1.5-1,2.4-1H27l-3.5,3.5h-20v34.7h34.7
	V24.4l3.5-3.5v23.6c0,0.9-0.3,1.7-1,2.4s-1.5,1-2.4,1H3.5z M31.4,6.8l2.5,2.4L17.4,25.7v5h4.9l16.6-16.6l2.4,2.4L23.8,34.1h-9.8
	v-9.8L31.4,6.8z M41.3,16.5l-9.9-9.7L37.2,1c0.7-0.7,1.5-1,2.4-1c1,0,1.8,0.3,2.5,1L47,6c0.7,0.7,1,1.5,1,2.5c0,0.9-0.3,1.7-1,2.4
	L41.3,16.5z"/>
</svg>
