<?xml version="1.0" encoding="utf-8"?>
<!-- Generator: Adobe Illustrator 27.6.1, SVG Export Plug-In . SVG Version: 6.00 Build 0)  -->
<svg version="1.1" id="圖層_1" xmlns="http://www.w3.org/2000/svg" xmlns:xlink="http://www.w3.org/1999/xlink" x="0px" y="0px"
	 viewBox="0 0 24 24" style="enable-background:new 0 0 24 24;" xml:space="preserve">
<style type="text/css">
	.st0{fill-rule:evenodd;clip-rule:evenodd;fill:#A78667;}
</style>
<path class="st0" d="M21,11c0-3.9-4-7-9-7c-5,0-9,3.2-9,7c0,3.5,3.2,6.4,7.5,6.9c0.3,0.1,0.7,0.2,0.8,0.4c0.1,0.2,0.1,0.6,0,0.8
	c0,0-0.1,0.6-0.1,0.7c0,0.2-0.2,0.9,0.8,0.5c1-0.4,5.2-2.9,7.1-5C20.4,14,21,12.6,21,11z M6.4,13.1c-0.2,0-0.4-0.2-0.4-0.4V9.4
	C6,9.2,6.2,9,6.5,9s0.4,0.2,0.4,0.4v2.8H8c0.2,0,0.4,0.2,0.4,0.4c0,0.2-0.2,0.4-0.4,0.4H6.4z M10.2,12.7c0,0.2-0.2,0.4-0.4,0.4
	c-0.2,0-0.5-0.2-0.5-0.4V9.4C9.3,9.2,9.5,9,9.8,9c0.2,0,0.4,0.2,0.4,0.4V12.7z M14.7,12.7c0,0.2-0.1,0.4-0.3,0.4c0,0-0.1,0-0.1,0
	c-0.1,0-0.3-0.1-0.4-0.2L12,10.7v2c0,0.2-0.2,0.4-0.5,0.4c-0.3,0-0.5-0.2-0.5-0.4V9.4c0-0.2,0.1-0.3,0.3-0.4c0,0,0.1,0,0.1,0
	c0.1,0,0.3,0.1,0.4,0.2l1.8,2.3v-2C13.8,9.2,14,9,14.2,9c0.3,0,0.5,0.2,0.5,0.4V12.7z M17.6,10.6c0.2,0,0.4,0.2,0.4,0.4
	c0,0.2-0.2,0.4-0.4,0.4h-1.2v0.8h1.2c0.2,0,0.4,0.2,0.4,0.4c0,0.2-0.2,0.4-0.4,0.4H16c-0.2,0-0.4-0.2-0.4-0.4v-1.6v0V9.4
	C15.6,9.2,15.8,9,16,9h1.6C17.8,9,18,9.2,18,9.4s-0.2,0.4-0.4,0.4h-1.2v0.8H17.6z"/>
</svg>
