<?xml version="1.0" encoding="utf-8"?>
<!-- Generator: Adobe Illustrator 27.6.1, SVG Export Plug-In . SVG Version: 6.00 Build 0)  -->
<svg version="1.1" id="圖層_1" xmlns="http://www.w3.org/2000/svg" xmlns:xlink="http://www.w3.org/1999/xlink" x="0px" y="0px"
	 viewBox="0 0 48 48" style="enable-background:new 0 0 48 48;" xml:space="preserve">
<style type="text/css">
	.st0{fill:#32302C;}
</style>
<path class="st0" d="M12,36.9c0.5,0,1-0.2,1.4-0.6c0.4-0.4,0.6-0.9,0.6-1.4c0-0.5-0.2-1-0.6-1.4s-0.9-0.6-1.4-0.6
	c-0.5,0-1,0.2-1.4,0.6c-0.4,0.4-0.6,0.9-0.6,1.4c0,0.5,0.2,1,0.6,1.4C11,36.7,11.5,36.9,12,36.9z M12,26c0.5,0,1-0.2,1.4-0.6
	S14,24.5,14,24s-0.2-1-0.6-1.4C13,22.2,12.5,22,12,22c-0.5,0-1,0.2-1.4,0.6C10.2,23,10,23.5,10,24s0.2,1,0.6,1.4
	C11,25.8,11.5,26,12,26z M12,15.1c0.5,0,1-0.2,1.4-0.6c0.4-0.4,0.6-0.9,0.6-1.4c0-0.5-0.2-1-0.6-1.4c-0.4-0.4-0.9-0.6-1.4-0.6
	c-0.5,0-1,0.2-1.4,0.6c-0.4,0.4-0.6,0.9-0.6,1.4c0,0.5,0.2,1,0.6,1.4C11,14.9,11.5,15.1,12,15.1z M20.8,36.9h16.3v-4H20.8V36.9z
	 M20.8,26h16.3v-4H20.8V26z M20.8,15.1h16.3v-4H20.8V15.1z M4,48c-1.1,0-2-0.4-2.8-1.2S0,45.1,0,44V4c0-1.1,0.4-2,1.2-2.8S2.9,0,4,0
	h40c1.1,0,2,0.4,2.8,1.2S48,2.9,48,4v40c0,1.1-0.4,2-1.2,2.8S45.1,48,44,48H4z M4,44h40V4H4V44z M4,4v40V4z"/>
</svg>
