<?xml version="1.0" encoding="utf-8"?>
<!-- Generator: Adobe Illustrator 27.6.1, SVG Export Plug-In . SVG Version: 6.00 Build 0)  -->
<svg version="1.1" id="圖層_1" xmlns="http://www.w3.org/2000/svg" xmlns:xlink="http://www.w3.org/1999/xlink" x="0px" y="0px"
	 viewBox="0 0 48 48" style="enable-background:new 0 0 48 48;" xml:space="preserve">
<style type="text/css">
	.st0{fill:#32302C;}
</style>
<path class="st0" d="M9.1,48c-0.9,0-1.8-0.3-2.4-1s-1-1.5-1-2.4V19.8c0-0.9,0.3-1.8,1-2.4s1.5-1,2.4-1h4v-5.5c0-3,1.1-5.6,3.2-7.7
	C18.4,1.1,21,0,24,0s5.6,1.1,7.7,3.2c2.1,2.1,3.2,4.7,3.2,7.7v5.5h4c0.9,0,1.8,0.3,2.4,1s1,1.5,1,2.4v24.8c0,0.9-0.3,1.8-1,2.4
	s-1.5,1-2.4,1H9.1z M9.1,44.6h29.7V19.8H9.1V44.6z M24,36.6c1.2,0,2.2-0.4,3.1-1.3c0.9-0.8,1.3-1.8,1.3-3c0-1.1-0.4-2.2-1.3-3.1
	c-0.9-0.9-1.9-1.4-3.1-1.4s-2.2,0.5-3.1,1.4c-0.9,0.9-1.3,2-1.3,3.1c0,1.2,0.4,2.2,1.3,3C21.8,36.2,22.8,36.6,24,36.6z M16.6,16.3
	h14.9v-5.5c0-2.1-0.7-3.8-2.2-5.3c-1.4-1.4-3.2-2.2-5.3-2.2c-2.1,0-3.8,0.7-5.3,2.2c-1.4,1.4-2.2,3.2-2.2,5.3V16.3z M9.1,44.6V19.8
	V44.6z"/>
</svg>
