<svg width="18" height="19" viewBox="0 0 18 19" fill="none" xmlns="http://www.w3.org/2000/svg">
<path fill-rule="evenodd" clip-rule="evenodd" d="M12.133 2.58078C11.1726 1.62086 9.95744 0.956093 8.63116 0.665122C7.30487 0.374151 5.923 0.469151 4.64901 0.938885C3.37502 1.40862 2.26223 2.23343 1.44229 3.31574C0.622351 4.39805 0.129569 5.69256 0.0222426 7.04614C-0.0850834 8.39972 0.197538 9.75572 0.836672 10.9537C1.47581 12.1517 2.44471 13.1416 3.62875 13.8062C4.81279 14.4709 6.16243 14.7824 7.518 14.7041C8.87356 14.6258 10.1783 14.1608 11.2779 13.3642L16.2596 18.347C16.3579 18.445 16.491 18.5 16.6297 18.5C16.7685 18.5 16.9016 18.445 16.9999 18.347L17.847 17.4999C17.945 17.4016 18 17.2685 18 17.1297C18 16.991 17.945 16.8579 17.847 16.7596L12.8642 11.7768C13.8555 10.4073 14.3264 8.72941 14.1924 7.04411C14.0584 5.35881 13.3282 3.7764 12.133 2.58078ZM3.66821 4.1682C4.5819 3.26594 5.81534 2.76164 7.09944 2.76532C8.38353 2.76899 9.61407 3.28034 10.5226 4.18782C11.4311 5.0953 11.9439 6.32524 11.949 7.60933C11.9542 8.89342 11.4513 10.1274 10.55 11.0422L10.5422 11.05C9.62745 11.9513 8.39343 12.4541 7.10934 12.449C5.82525 12.4439 4.5953 11.9311 3.68782 11.0226C2.78035 10.1141 2.26899 8.88353 2.26532 7.59943C2.26164 6.31534 2.76595 5.0819 3.66821 4.1682Z" fill="#666666"/>
</svg>
