<svg width="12" height="13" viewBox="0 0 12 13" fill="none" xmlns="http://www.w3.org/2000/svg">
<path fill-rule="evenodd" clip-rule="evenodd" d="M6 0.683962V9.53609L5.99992 9.53605L2.73742 11.2176C2.71272 11.2303 2.68497 11.2359 2.65727 11.2338C2.62957 11.2317 2.60301 11.2219 2.58053 11.2056C2.55806 11.1892 2.54056 11.167 2.52999 11.1413C2.51942 11.1156 2.51619 11.0875 2.52067 11.0601L3.11317 7.43755L0.504665 4.85605C0.484537 4.83673 0.470256 4.81214 0.463459 4.78508C0.456663 4.75803 0.457624 4.72961 0.466234 4.70307C0.474844 4.67654 0.490755 4.65296 0.512143 4.63505C0.53353 4.61714 0.559531 4.60562 0.587165 4.6018L4.21492 4.04455L5.86492 0.76705C5.87736 0.742089 5.89651 0.721091 5.92022 0.706413C5.94394 0.691735 5.97128 0.68396 5.99917 0.68396C5.99944 0.68396 5.99972 0.683961 6 0.683962Z" fill="#AC9E91"/>
<path d="M6.11447 9.31384L5.99993 9.25479L5.88538 9.31383L2.79946 10.9043L3.35989 7.4779L3.38071 7.3506L3.28902 7.25986L0.822251 4.81862L4.25287 4.29165L4.38026 4.27208L4.43821 4.15697L5.99917 1.05635L7.56012 4.15697L7.61807 4.27208L7.74546 4.29165L11.1762 4.81864L8.71146 7.26071L8.61993 7.35139L8.64068 7.47855L9.19957 10.9043L6.11447 9.31384Z" stroke="#AC9E91" stroke-width="0.5"/>
</svg>
