<?xml version="1.0" encoding="utf-8"?>
<!-- Generator: Adobe Illustrator 27.6.1, SVG Export Plug-In . SVG Version: 6.00 Build 0)  -->
<svg version="1.1" id="圖層_1" xmlns="http://www.w3.org/2000/svg" xmlns:xlink="http://www.w3.org/1999/xlink" x="0px" y="0px"
	 viewBox="0 0 14 14" style="enable-background:new 0 0 14 14;" xml:space="preserve">
<style type="text/css">
	.st0{fill:#A78667;}
</style>
<path class="st0" d="M0,1.5c0-0.4,0.2-0.8,0.4-1.1C0.7,0.2,1.1,0,1.5,0h3c0.4,0,0.8,0.2,1.1,0.4C5.8,0.7,6,1.1,6,1.5v3
	c0,0.4-0.2,0.8-0.4,1.1S4.9,6,4.5,6h-3C1.1,6,0.7,5.8,0.4,5.6C0.2,5.3,0,4.9,0,4.5V1.5z M1.5,1C1.4,1,1.2,1.1,1.1,1.1
	C1.1,1.2,1,1.4,1,1.5v3c0,0.1,0.1,0.3,0.1,0.4C1.2,4.9,1.4,5,1.5,5h3c0.1,0,0.3-0.1,0.4-0.1C4.9,4.8,5,4.6,5,4.5v-3
	c0-0.1-0.1-0.3-0.1-0.4C4.8,1.1,4.6,1,4.5,1H1.5z M8,1.5c0-0.4,0.2-0.8,0.4-1.1C8.7,0.2,9.1,0,9.5,0h3c0.4,0,0.8,0.2,1.1,0.4
	C13.8,0.7,14,1.1,14,1.5v3c0,0.4-0.2,0.8-0.4,1.1C13.3,5.8,12.9,6,12.5,6h-3C9.1,6,8.7,5.8,8.4,5.6C8.2,5.3,8,4.9,8,4.5V1.5z M9.5,1
	C9.4,1,9.2,1.1,9.1,1.1C9.1,1.2,9,1.4,9,1.5v3c0,0.1,0.1,0.3,0.1,0.4C9.2,4.9,9.4,5,9.5,5h3c0.1,0,0.3-0.1,0.4-0.1
	C12.9,4.8,13,4.6,13,4.5v-3c0-0.1-0.1-0.3-0.1-0.4C12.8,1.1,12.6,1,12.5,1H9.5z M0,9.5c0-0.4,0.2-0.8,0.4-1.1C0.7,8.2,1.1,8,1.5,8h3
	c0.4,0,0.8,0.2,1.1,0.4C5.8,8.7,6,9.1,6,9.5v3c0,0.4-0.2,0.8-0.4,1.1C5.3,13.8,4.9,14,4.5,14h-3c-0.4,0-0.8-0.2-1.1-0.4
	C0.2,13.3,0,12.9,0,12.5V9.5z M1.5,9C1.4,9,1.2,9.1,1.1,9.1C1.1,9.2,1,9.4,1,9.5v3c0,0.1,0.1,0.3,0.1,0.4C1.2,12.9,1.4,13,1.5,13h3
	c0.1,0,0.3-0.1,0.4-0.1C4.9,12.8,5,12.6,5,12.5v-3c0-0.1-0.1-0.3-0.1-0.4C4.8,9.1,4.6,9,4.5,9H1.5z M8,9.5c0-0.4,0.2-0.8,0.4-1.1
	C8.7,8.2,9.1,8,9.5,8h3c0.4,0,0.8,0.2,1.1,0.4C13.8,8.7,14,9.1,14,9.5v3c0,0.4-0.2,0.8-0.4,1.1c-0.3,0.3-0.7,0.4-1.1,0.4h-3
	c-0.4,0-0.8-0.2-1.1-0.4C8.2,13.3,8,12.9,8,12.5V9.5z M9.5,9C9.4,9,9.2,9.1,9.1,9.1C9.1,9.2,9,9.4,9,9.5v3c0,0.1,0.1,0.3,0.1,0.4
	C9.2,12.9,9.4,13,9.5,13h3c0.1,0,0.3-0.1,0.4-0.1c0.1-0.1,0.1-0.2,0.1-0.4v-3c0-0.1-0.1-0.3-0.1-0.4C12.8,9.1,12.6,9,12.5,9H9.5z"/>
</svg>
