<?xml version="1.0" encoding="utf-8"?>
<!-- Generator: Adobe Illustrator 27.6.1, SVG Export Plug-In . SVG Version: 6.00 Build 0)  -->
<svg version="1.1" id="圖層_1" xmlns="http://www.w3.org/2000/svg" xmlns:xlink="http://www.w3.org/1999/xlink" x="0px" y="0px"
	 viewBox="0 0 14 10" style="enable-background:new 0 0 14 10;" xml:space="preserve">
<style type="text/css">
	.st0{fill-rule:evenodd;clip-rule:evenodd;fill:#A78667;}
</style>
<path class="st0" d="M4,9c0-0.1,0.1-0.3,0.1-0.4c0.1-0.1,0.2-0.1,0.4-0.1h9c0.1,0,0.3,0.1,0.4,0.1C13.9,8.7,14,8.9,14,9
	s-0.1,0.3-0.1,0.4c-0.1,0.1-0.2,0.1-0.4,0.1h-9c-0.1,0-0.3-0.1-0.4-0.1C4.1,9.3,4,9.1,4,9z M4,5c0-0.1,0.1-0.3,0.1-0.4
	c0.1-0.1,0.2-0.1,0.4-0.1h9c0.1,0,0.3,0.1,0.4,0.1C13.9,4.7,14,4.9,14,5s-0.1,0.3-0.1,0.4c-0.1,0.1-0.2,0.1-0.4,0.1h-9
	c-0.1,0-0.3-0.1-0.4-0.1C4.1,5.3,4,5.1,4,5z M4,1c0-0.1,0.1-0.3,0.1-0.4c0.1-0.1,0.2-0.1,0.4-0.1h9c0.1,0,0.3,0.1,0.4,0.1
	C13.9,0.7,14,0.9,14,1c0,0.1-0.1,0.3-0.1,0.4c-0.1,0.1-0.2,0.1-0.4,0.1h-9c-0.1,0-0.3-0.1-0.4-0.1C4.1,1.3,4,1.1,4,1z M1,2
	c0.3,0,0.5-0.1,0.7-0.3C1.9,1.5,2,1.3,2,1c0-0.3-0.1-0.5-0.3-0.7C1.5,0.1,1.3,0,1,0C0.7,0,0.5,0.1,0.3,0.3C0.1,0.5,0,0.7,0,1
	c0,0.3,0.1,0.5,0.3,0.7C0.5,1.9,0.7,2,1,2z M1,6c0.3,0,0.5-0.1,0.7-0.3C1.9,5.5,2,5.3,2,5S1.9,4.5,1.7,4.3C1.5,4.1,1.3,4,1,4
	C0.7,4,0.5,4.1,0.3,4.3C0.1,4.5,0,4.7,0,5s0.1,0.5,0.3,0.7C0.5,5.9,0.7,6,1,6z M1,10c0.3,0,0.5-0.1,0.7-0.3C1.9,9.5,2,9.3,2,9
	S1.9,8.5,1.7,8.3C1.5,8.1,1.3,8,1,8C0.7,8,0.5,8.1,0.3,8.3C0.1,8.5,0,8.7,0,9s0.1,0.5,0.3,0.7C0.5,9.9,0.7,10,1,10z"/>
</svg>
