<?xml version="1.0" encoding="utf-8"?>
<!-- Generator: Adobe Illustrator 27.6.1, SVG Export Plug-In . SVG Version: 6.00 Build 0)  -->
<svg version="1.1" id="圖層_1" xmlns="http://www.w3.org/2000/svg" xmlns:xlink="http://www.w3.org/1999/xlink" x="0px" y="0px"
	 viewBox="0 0 36 42" style="enable-background:new 0 0 36 42;" xml:space="preserve">
<style type="text/css">
	.st0{fill:#FFFFFF;}
	.st1{fill-rule:evenodd;clip-rule:evenodd;fill:#FFFFFF;}
</style>
<g>
	<path class="st0" d="M3,42c-0.8,0-1.5-0.3-2.1-0.9C0.3,40.5,0,39.8,0,39V12.5c0-0.8,0.3-1.5,0.9-2.1C1.5,9.8,2.2,9.5,3,9.5h5.5
		c0-2.6,0.9-4.9,2.7-6.7s4-2.8,6.6-2.8c2.6,0,4.9,0.9,6.9,2.8c1.9,1.9,2.9,4.1,2.9,6.7H33c0.8,0,1.5,0.3,2.1,0.9
		c0.6,0.6,0.9,1.3,0.9,2.1V39c0,0.8-0.3,1.5-0.9,2.1C34.5,41.7,33.8,42,33,42H3z M3,39h30V12.5H3V39z M11.5,9.5h13
		c0-1.8-0.6-3.4-1.9-4.6S19.8,3,18,3c-1.8,0-3.4,0.6-4.6,1.9S11.5,7.7,11.5,9.5z M3,39V12.5V39z"/>
	<path class="st1" d="M11.7,18.4v14.8H15v-5.6h1l4.3,5.6h4l-5.1-6.6c0.9-0.5,1.5-1,2-1.6l0,0l0,0c0.6-0.8,0.9-1.7,0.9-2.7
		c0-0.8-0.2-1.5-0.6-2.1s-1-1-1.7-1.3c-0.7-0.3-2-0.5-3.5-0.5L11.7,18.4L11.7,18.4z M15.5,24.7H15v-3.6h0.7c0.7,0,1.2,0.1,1.6,0.1
		c0.4,0.1,0.7,0.1,0.9,0.3c0.3,0.1,0.5,0.4,0.5,1c0,0.7-0.3,1.1-0.7,1.5C17.3,24.5,16.6,24.7,15.5,24.7z"/>
</g>
</svg>
