<?xml version="1.0" encoding="utf-8"?>
<!-- Generator: Adobe Illustrator 27.6.1, SVG Export Plug-In . SVG Version: 6.00 Build 0)  -->
<svg version="1.1" id="圖層_1" xmlns="http://www.w3.org/2000/svg" xmlns:xlink="http://www.w3.org/1999/xlink" x="0px" y="0px"
	 viewBox="0 0 24 24" style="enable-background:new 0 0 24 24;" xml:space="preserve">
<style type="text/css">
	.st0{fill-rule:evenodd;clip-rule:evenodd;fill:#FFFFFF;}
</style>
<path class="st0" d="M15.1,4.6c-1-1-2.2-1.6-3.5-1.9c-1.3-0.3-2.7-0.2-4,0.3C6.4,3.4,5.3,4.2,4.4,5.3S3.1,7.7,3,9
	c-0.1,1.4,0.2,2.7,0.8,3.9c0.6,1.2,1.6,2.2,2.8,2.9c1.2,0.7,2.5,1,3.9,0.9c1.4-0.1,2.7-0.5,3.8-1.3l5,5c0.1,0.1,0.2,0.2,0.4,0.2
	c0.1,0,0.3-0.1,0.4-0.2l0.8-0.8c0.1-0.1,0.2-0.2,0.2-0.4c0-0.1-0.1-0.3-0.2-0.4l-5-5c1-1.4,1.5-3,1.3-4.7
	C17.1,7.4,16.3,5.8,15.1,4.6z M6.7,6.2c0.9-0.9,2.1-1.4,3.4-1.4c1.3,0,2.5,0.5,3.4,1.4s1.4,2.1,1.4,3.4c0,1.3-0.5,2.5-1.4,3.4l0,0
	c-0.9,0.9-2.1,1.4-3.4,1.4c-1.3,0-2.5-0.5-3.4-1.4c-0.9-0.9-1.4-2.1-1.4-3.4C5.3,8.3,5.8,7.1,6.7,6.2z"/>
</svg>
