<svg width="16" height="18" viewBox="0 0 16 18" fill="none" xmlns="http://www.w3.org/2000/svg">
<path d="M8 10.9L5.87 12.99C5.31 13.55 5 14.28 5 15.06C5 16.68 6.35 18 8 18C9.65 18 11 16.68 11 15.06C11 14.28 10.69 13.54 10.13 12.99L8 10.9Z" fill="#32302C"/>
<path d="M12 4L11.56 4.55C10.38 6.02 8 5.19 8 3.3V0C8 0 0 4 0 11C0 13.92 1.56 16.47 3.89 17.86C3.33 17.07 3 16.1 3 15.06C3 13.74 3.52 12.5 4.47 11.56L8 8.1L11.53 11.57C12.48 12.5 13 13.74 13 15.07C13 16.09 12.69 17.03 12.15 17.82C14.04 16.67 15.44 14.76 15.86 12.52C16.52 8.97 14.79 5.62 12 4Z" fill="#32302C"/>
</svg>
