<svg width="24" height="24" viewBox="0 0 24 24" fill="none" xmlns="http://www.w3.org/2000/svg">
<path fill-rule="evenodd" clip-rule="evenodd" d="M12.4375 4C10.146 4 9.8587 4.0097 8.9587 4.0508C8.0607 4.0917 7.4473 4.2344 6.9106 4.443C6.3558 4.6586 5.8852 4.9471 5.4161 5.4161C4.9471 5.8852 4.6586 6.3558 4.443 6.9106C4.2344 7.4473 4.0917 8.0607 4.0508 8.9587C4.0097 9.8587 4 10.146 4 12.4375C4 14.729 4.0097 15.0163 4.0508 15.9163C4.0917 16.8143 4.2344 17.4277 4.443 17.9644C4.6586 18.5192 4.9471 18.9898 5.4161 19.4589C5.8852 19.9279 6.3558 20.2164 6.9106 20.4321C7.4473 20.6406 8.0607 20.7833 8.9587 20.8242C9.8587 20.8653 10.146 20.875 12.4375 20.875C14.729 20.875 15.0163 20.8653 15.9163 20.8242C16.8143 20.7833 17.4277 20.6406 17.9644 20.4321C18.5192 20.2164 18.9898 19.9279 19.4589 19.4589C19.9279 18.9898 20.2164 18.5192 20.4321 17.9644C20.6406 17.4277 20.7833 16.8143 20.8242 15.9163C20.8653 15.0163 20.875 14.729 20.875 12.4375C20.875 10.146 20.8653 9.8587 20.8242 8.9587C20.7833 8.0607 20.6406 7.4473 20.4321 6.9106C20.2164 6.3558 19.9279 5.8852 19.4589 5.4161C18.9898 4.9471 18.5192 4.6586 17.9644 4.443C17.4277 4.2344 16.8143 4.0917 15.9163 4.0508C15.0163 4.0097 14.729 4 12.4375 4ZM12.4375 5.5203C14.6904 5.5203 14.9573 5.5289 15.847 5.5695C16.6696 5.607 17.1164 5.7444 17.4137 5.86C17.8075 6.013 18.0886 6.1959 18.3838 6.4912C18.6791 6.7864 18.862 7.0675 19.015 7.4613C19.1306 7.7586 19.268 8.2054 19.3055 9.028C19.3461 9.9177 19.3547 10.1846 19.3547 12.4375C19.3547 14.6904 19.3461 14.9573 19.3055 15.847C19.268 16.6696 19.1306 17.1164 19.015 17.4137C18.862 17.8075 18.6791 18.0886 18.3838 18.3838C18.0886 18.6791 17.8075 18.862 17.4137 19.015C17.1164 19.1306 16.6696 19.268 15.847 19.3055C14.9574 19.3461 14.6906 19.3547 12.4375 19.3547C10.1844 19.3547 9.9176 19.3461 9.028 19.3055C8.2054 19.268 7.7586 19.1306 7.4613 19.015C7.0675 18.862 6.7864 18.6791 6.4912 18.3838C6.1959 18.0886 6.013 17.8075 5.86 17.4137C5.7444 17.1164 5.607 16.6696 5.5695 15.847C5.5289 14.9573 5.5203 14.6904 5.5203 12.4375C5.5203 10.1846 5.5289 9.9177 5.5695 9.028C5.607 8.2054 5.7444 7.7586 5.86 7.4613C6.013 7.0675 6.1959 6.7864 6.4912 6.4912C6.7864 6.1959 7.0675 6.013 7.4613 5.86C7.7586 5.7444 8.2054 5.607 9.028 5.5695C9.9177 5.5289 10.1846 5.5203 12.4375 5.5203ZM12.4375 8.1047C10.0446 8.1047 8.1047 10.0446 8.1047 12.4375C8.1047 14.8304 10.0446 16.7703 12.4375 16.7703C14.8304 16.7703 16.7703 14.8304 16.7703 12.4375C16.7703 10.0446 14.8304 8.1047 12.4375 8.1047ZM12.4375 15.25C10.8842 15.25 9.625 13.9908 9.625 12.4375C9.625 10.8842 10.8842 9.625 12.4375 9.625C13.9908 9.625 15.25 10.8842 15.25 12.4375C15.25 13.9908 13.9908 15.25 12.4375 15.25ZM17.954 7.9336C17.954 7.3744 17.5006 6.921 16.9414 6.921C16.3823 6.921 15.929 7.3744 15.929 7.9336C15.929 8.4927 16.3823 8.946 16.9414 8.946C17.5006 8.946 17.954 8.4927 17.954 7.9336Z" fill="white"/>
</svg>
