<svg width="24" height="24" viewBox="0 0 24 24" fill="none" xmlns="http://www.w3.org/2000/svg">
<path fill-rule="evenodd" clip-rule="evenodd" d="M21 11.0263C21 7.152 16.9625 4 12 4C7.0377 4 3 7.152 3 11.0263C3 14.4994 6.2019 17.4086 10.527 17.9589C10.8199 18.0196 11.2188 18.1451 11.3198 18.386C11.4106 18.6047 11.3793 18.9474 11.3488 19.1685C11.3488 19.1685 11.2436 19.7796 11.2204 19.91C11.1814 20.1288 11.0395 20.7659 12 20.3767C12.9608 19.9874 17.1828 17.4404 19.071 15.3494C20.3754 13.9736 21 12.577 21 11.0263ZM6.4146 13.1339C6.1861 13.1339 6 12.9408 6 12.703V9.4397C6 9.2022 6.2116 9.0089 6.48 9.0089C6.7484 9.0089 6.9 9.2006 6.9 9.4397V12.2724H7.9854C8.2143 12.2724 8.4 12.4657 8.4 12.703C8.4 12.9408 8.2143 13.1339 7.9854 13.1339H6.4146ZM10.2 12.703C10.2 12.9408 9.9981 13.1339 9.7501 13.1339C9.5019 13.1339 9.3 12.9408 9.3 12.703V9.4397C9.3 9.2022 9.5019 9.0089 9.7501 9.0089C9.9981 9.0089 10.2 9.2022 10.2 9.4397V12.703ZM14.7 12.703C14.7 12.889 14.5717 13.0532 14.3797 13.1116C14.3316 13.1265 14.2813 13.1339 14.2309 13.1339C14.0849 13.1339 13.9449 13.0696 13.8566 12.9616L12.0372 10.6842V12.703C12.0372 12.9408 11.8272 13.1339 11.5687 13.1339C11.3103 13.1339 11.1 12.9408 11.1 12.703V9.4397C11.1 9.2541 11.2288 9.0899 11.4203 9.0312C11.4686 9.0162 11.5187 9.0089 11.5691 9.0089C11.7153 9.0089 11.8554 9.0731 11.9431 9.1812L13.7631 11.4587V9.4397C13.7631 9.2022 13.9735 9.0089 14.2316 9.0089C14.4902 9.0089 14.7 9.2022 14.7 9.4397V12.703ZM17.5853 10.6407C17.8142 10.6407 18 10.8339 18 11.0715C18 11.3088 17.8142 11.502 17.5853 11.502H16.4294V12.2724H17.5853C17.8138 12.2724 18 12.4657 18 12.703C18 12.9408 17.8138 13.1339 17.5853 13.1339H16.0145C15.7863 13.1339 15.6 12.9408 15.6 12.703V11.0726V11.0715V9.4397C15.6 9.2022 15.7859 9.0089 16.0145 9.0089H17.5853C17.8142 9.0089 18 9.2022 18 9.4397C18 9.6772 17.8142 9.8702 17.5853 9.8702H16.4294V10.6407H17.5853Z" fill="white"/>
</svg>
