<?xml version="1.0" encoding="utf-8"?>
<!-- Generator: Adobe Illustrator 27.5.0, SVG Export Plug-In . SVG Version: 6.00 Build 0)  -->
<svg version="1.1" id="圖層_1" xmlns="http://www.w3.org/2000/svg" xmlns:xlink="http://www.w3.org/1999/xlink" x="0px" y="0px"
	 viewBox="0 0 40 36.7" style="enable-background:new 0 0 40 36.7;" xml:space="preserve">
<style type="text/css">
	.st0{fill:#E40505;}
</style>
<path class="st0" d="M37,3c-2-2-4.5-3-7.5-3c-1.8,0-3.5,0.4-5,1.3c-1.6,0.8-3,2.2-4.5,4c-1.2-1.7-2.6-3-4.2-3.9
	C14.2,0.5,12.4,0,10.5,0C7.5,0,5,1,3,3c-2,2-3,4.5-3,7.5c0,1.5,0.3,3.1,0.8,4.6s1.5,3.2,2.9,5c1.4,1.9,3.2,4,5.5,6.3
	c2.3,2.4,5.2,5.1,8.7,8.4l2,1.9l2-1.9c3.5-3.2,6.4-6,8.7-8.4c2.3-2.3,4.1-4.4,5.5-6.3c1.4-1.8,2.3-3.5,2.9-5s0.8-3,0.8-4.6
	C40,7.5,39,5,37,3z"/>
</svg>
