<svg width="12" height="13" viewBox="0 0 12 13" fill="none" xmlns="http://www.w3.org/2000/svg">
<path fill-rule="evenodd" clip-rule="evenodd" d="M6 9.53599L2.7375 11.2175C2.7128 11.2302 2.68506 11.2358 2.65736 11.2337C2.62966 11.2316 2.60309 11.2218 2.58062 11.2055C2.55814 11.1892 2.54064 11.1669 2.53007 11.1412C2.5195 11.1155 2.51627 11.0874 2.52075 11.06L3.11325 7.43749L0.50475 4.85599C0.484622 4.83667 0.470341 4.81208 0.463544 4.78502C0.456747 4.75797 0.457709 4.72954 0.466319 4.70301C0.474929 4.67647 0.49084 4.6529 0.512227 4.63499C0.533615 4.61708 0.559616 4.60556 0.58725 4.60174L4.215 4.04449L5.865 0.766989C5.87744 0.742028 5.89659 0.721029 5.92031 0.706352C5.94402 0.691674 5.97136 0.683899 5.99925 0.683899C6.02714 0.683899 6.05448 0.691674 6.07819 0.706352C6.10191 0.721029 6.12106 0.742028 6.1335 0.766989L7.7835 4.04449L11.4113 4.60174C11.4387 4.60582 11.4645 4.61749 11.4857 4.63543C11.5069 4.65338 11.5227 4.67688 11.5313 4.7033C11.5398 4.72972 11.5409 4.75801 11.5342 4.78499C11.5276 4.81196 11.5136 4.83655 11.4937 4.85599L8.8875 7.43824L9.4785 11.0607C9.48281 11.0881 9.47946 11.1161 9.46882 11.1417C9.45818 11.1673 9.44067 11.1894 9.41823 11.2056C9.39578 11.2219 9.36928 11.2316 9.34166 11.2337C9.31404 11.2357 9.28638 11.2302 9.26175 11.2175L6 9.53599Z" fill="#AC9E91"/>
</svg>
