<svg width="24" height="24" viewBox="0 0 24 24" fill="none" xmlns="http://www.w3.org/2000/svg">
<path fill-rule="evenodd" clip-rule="evenodd" d="M15.133 4.58078C14.1726 3.62086 12.9574 2.95609 11.6312 2.66512C10.3049 2.37415 8.923 2.46915 7.64901 2.93888C6.37502 3.40862 5.26223 4.23343 4.44229 5.31574C3.62235 6.39805 3.12957 7.69256 3.02224 9.04614C2.91492 10.3997 3.19754 11.7557 3.83667 12.9537C4.47581 14.1517 5.44471 15.1416 6.62875 15.8062C7.81279 16.4709 9.16243 16.7824 10.518 16.7041C11.8736 16.6258 13.1783 16.1608 14.2779 15.3642L19.2596 20.347C19.3579 20.445 19.491 20.5 19.6297 20.5C19.7685 20.5 19.9016 20.445 19.9999 20.347L20.847 19.4999C20.945 19.4016 21 19.2685 21 19.1297C21 18.991 20.945 18.8579 20.847 18.7596L15.8642 13.7768C16.8555 12.4073 17.3264 10.7294 17.1924 9.04411C17.0584 7.35881 16.3282 5.7764 15.133 4.58078ZM6.66821 6.1682C7.5819 5.26594 8.81534 4.76164 10.0994 4.76532C11.3835 4.76899 12.6141 5.28034 13.5226 6.18782C14.4311 7.0953 14.9439 8.32524 14.949 9.60933C14.9542 10.8934 14.4513 12.1274 13.55 13.0422L13.5422 13.05C12.6274 13.9513 11.3934 14.4541 10.1093 14.449C8.82525 14.4439 7.5953 13.9311 6.68782 13.0226C5.78035 12.1141 5.26899 10.8835 5.26532 9.59943C5.26164 8.31534 5.76595 7.0819 6.66821 6.1682Z" fill="#32302C"/>
</svg>
