<svg width="24" height="24" viewBox="0 0 24 24" fill="none" xmlns="http://www.w3.org/2000/svg">
<path fill-rule="evenodd" clip-rule="evenodd" d="M9.692 14.7593V9.1533L14.853 11.8974L9.692 14.7593ZM21.2503 8.0202C21.2503 8.0202 21.0602 6.6485 20.4773 6.0445C19.7379 5.2517 18.9091 5.2477 18.529 5.2013C15.808 5 11.7264 5 11.7264 5H11.718C11.718 5 7.6365 5 4.9154 5.2013C4.5353 5.2477 3.7068 5.2517 2.9671 6.0445C2.3841 6.6485 2.1944 8.0202 2.1944 8.0202C2.1944 8.0202 2 9.631 2 11.2418V12.7519C2 14.3627 2.1944 15.9735 2.1944 15.9735C2.1944 15.9735 2.3841 17.3452 2.9671 17.9492C3.7068 18.742 4.6784 18.717 5.1111 18.8C6.6667 18.9527 11.7222 19 11.7222 19C11.7222 19 15.808 18.9937 18.529 18.7924C18.9091 18.746 19.7379 18.742 20.4773 17.9492C21.0602 17.3452 21.2503 15.9735 21.2503 15.9735C21.2503 15.9735 21.4444 14.3627 21.4444 12.7519V11.2418C21.4444 9.631 21.2503 8.0202 21.2503 8.0202Z" fill="white"/>
</svg>
