<svg width="32" height="21" viewBox="0 0 32 21" fill="none" xmlns="http://www.w3.org/2000/svg">
<path fill-rule="evenodd" clip-rule="evenodd" d="M15.3702 4.29202C16.8803 2.94974 18.8378 2.16675 20.9631 2.16675C25.5492 2.16675 29.2964 5.91397 29.2964 10.5001C29.2964 15.0862 25.5492 18.8334 20.9631 18.8334C18.7819 18.8334 16.8244 18.0504 15.3702 16.7081C13.9161 18.0504 11.9586 18.8334 9.83335 18.8334C5.24722 18.8334 1.5 15.0862 1.5 10.5001C1.5 5.91397 5.24722 2.16675 9.83335 2.16675C11.9586 2.16675 13.9161 2.94974 15.3702 4.29202ZM4.35234 12.7372L5.52685 9.49336L5.02348 12.7372H5.91836L6.64542 8.48665H5.24721L4.35234 11.1153L4.29642 8.48665H3.01007L2.28301 12.7372H3.12194L3.68122 9.49336L3.73714 12.7372H4.35234ZM8.04363 12.4016V12.7372C8.04363 12.7372 8.65884 12.7372 8.7707 12.6813C8.82662 12.4016 8.99441 11.339 9.05034 10.8357C9.10625 10.5561 9.10625 10.3324 9.10625 10.1646V10.1645C9.10625 9.49337 8.71477 9.1578 7.93177 9.1578C7.5962 9.1578 7.31654 9.21372 6.86912 9.32558C6.86912 9.32558 6.75729 10.0527 6.75729 10.1086L6.75729 10.1086C6.92508 10.0527 7.26062 9.94081 7.70804 9.94081C8.09954 9.94081 8.26733 10.0527 8.26733 10.2764V10.2764C8.26733 10.3323 8.26733 10.3883 8.21141 10.5001H7.81991C6.81319 10.5001 6.25392 11.0034 6.25392 11.8424C6.25392 12.4016 6.58949 12.7932 7.09284 12.7932C7.48434 12.7932 7.81992 12.6813 8.04363 12.4016ZM11.3434 11.6187C11.3434 11.1712 11.1756 10.8916 10.7282 10.6679C10.3367 10.5001 10.2808 10.4442 10.2248 10.2205C10.2248 10.0527 10.3926 9.94081 10.6723 9.94081H10.6724C10.8961 9.94081 11.1197 9.94081 11.3434 9.99673L11.4553 9.21372C11.3434 9.21372 11.2036 9.19974 11.0638 9.18576C10.9239 9.17178 10.7841 9.1578 10.6723 9.1578C9.66557 9.1578 9.32998 9.71707 9.32998 10.3323C9.32998 10.7797 9.49777 11.0594 10.0011 11.2831C10.3926 11.4509 10.4485 11.5068 10.4485 11.6746C10.4485 11.8983 10.2808 12.0101 9.94518 12.0101H9.94498C9.6654 12.0101 9.38583 12.0101 9.10625 11.8983C9.10625 11.8983 8.99442 12.6254 8.99442 12.6813C9.01321 12.686 9.03161 12.6907 9.04987 12.6953C9.24908 12.7462 9.43287 12.7932 9.94518 12.7932C10.896 12.7932 11.3434 12.4017 11.3434 11.6187ZM12.6858 11.9542H12.6857C12.5179 11.9542 12.406 11.8424 12.2942 11.6746C12.2942 11.6147 12.3422 11.3626 12.4041 11.0383C12.4578 10.7567 12.5218 10.4206 12.5738 10.1086H13.0212L13.1331 9.26967H12.6857L12.7976 8.7663H11.9027L11.5112 11.1153C11.4553 11.4509 11.3993 11.8424 11.3993 12.0101C11.3993 12.5135 11.679 12.7932 12.1264 12.7932C12.3501 12.7932 12.5738 12.7372 12.7975 12.6813L12.7976 12.6813L12.9094 11.8983C12.8535 11.9542 12.7976 11.9542 12.6858 11.9542ZM15.7618 11.7864C15.4262 11.9542 15.1465 12.0101 14.811 12.0101C14.3076 12.0101 13.9721 11.7864 14.028 11.2272H15.8177C15.8308 11.1485 15.8439 11.0759 15.8563 11.0074C15.8968 10.7836 15.9295 10.6023 15.9295 10.3882C15.9295 9.66116 15.4262 9.1578 14.6991 9.1578C13.8042 9.1578 13.1331 10.0527 13.1331 11.2272C13.1331 12.2339 13.6365 12.7372 14.6432 12.7372C14.9788 12.7372 15.2584 12.7372 15.594 12.6254L15.7618 11.7864ZM15.9295 12.7372H16.8244L16.8347 12.6722C17.1612 10.6039 17.2216 10.221 17.7752 10.2764C17.8311 9.82894 17.9989 9.43745 18.1108 9.26967C17.7193 9.21374 17.4955 9.43745 17.2159 9.82895C17.2159 9.74506 17.2299 9.66116 17.2438 9.57727C17.2578 9.49337 17.2718 9.40947 17.2718 9.32558H16.4329C16.321 10.3882 16.1533 11.4509 15.9855 12.5135L15.9295 12.7372ZM19.509 12.7932C19.7327 12.7932 19.9564 12.7931 20.2919 12.6813L20.5157 11.6187C20.1801 11.7865 19.9564 11.8424 19.7327 11.8424C19.2293 11.8424 18.8937 11.4509 18.8937 10.8357C18.8937 9.9408 19.3971 9.26967 20.0682 9.26967C20.292 9.26967 20.5157 9.32557 20.8512 9.49336L21.019 8.59852C21.0027 8.59307 20.9837 8.58656 20.9624 8.57925C20.7646 8.51149 20.3657 8.37479 20.0123 8.37479C18.7819 8.37479 17.943 9.43745 17.943 10.9475C17.943 12.0661 18.5582 12.7932 19.509 12.7932ZM22.3613 12.7372H23.0884C23.0884 12.4576 23.2561 11.3949 23.368 10.8357C23.4239 10.556 23.424 10.3323 23.424 10.1645C23.424 9.49337 23.0324 9.1578 22.2494 9.1578C21.9139 9.1578 21.6342 9.21372 21.1868 9.32558C21.1868 9.32558 21.075 10.0527 21.075 10.1086C21.2427 10.0527 21.5783 9.94081 22.0257 9.94081C22.4172 9.94081 22.585 10.0527 22.585 10.2764C22.585 10.3323 22.585 10.3882 22.5291 10.5001H22.1376C21.1309 10.5001 20.5716 11.0034 20.5716 11.8424C20.5716 12.4016 20.9072 12.7932 21.4105 12.7932C21.802 12.7932 22.1376 12.6813 22.3613 12.4016V12.7372ZM23.424 12.7372H24.3188C24.5984 10.612 24.7103 10.2204 25.2696 10.2764C25.3255 9.82894 25.4933 9.43745 25.6051 9.26967C25.2136 9.21374 24.9899 9.43745 24.7103 9.82895C24.7103 9.74506 24.7243 9.66116 24.7383 9.57727C24.7522 9.49337 24.7662 9.40947 24.7662 9.32558H23.9273C23.8154 10.3882 23.6477 11.4509 23.4799 12.5135L23.424 12.7372ZM27.0127 12.6813L27.0593 12.4016C26.8356 12.6813 26.5559 12.7932 26.2204 12.7932C25.5492 12.7932 25.1018 12.2339 25.1018 11.339C25.1018 10.2205 25.7729 9.21372 26.5559 9.21372C26.8915 9.21372 27.1711 9.38153 27.3949 9.66117L27.6186 8.43074H28.5134L27.8423 12.6813H27.0127ZM14.0839 10.6119C14.1398 10.2204 14.3635 9.99674 14.6432 9.99674C15.1393 9.99674 15.1073 10.3929 15.0937 10.5604C15.092 10.5817 15.0906 10.5993 15.0906 10.6119H14.0839ZM7.14875 11.6746C7.14875 11.8983 7.26063 12.0102 7.48434 12.0102C7.87584 12.0102 8.09956 11.6746 8.15549 11.1713H7.93176C7.42841 11.1713 7.14875 11.3391 7.14875 11.6746ZM21.4665 11.6746C21.4665 11.8983 21.5783 12.0102 21.802 12.0102C22.1935 12.0102 22.4173 11.6746 22.4732 11.1713H22.2495C21.6902 11.1713 21.4665 11.3391 21.4665 11.6746ZM26.7797 10.1086C26.3882 10.1086 26.0526 10.612 26.0526 11.2831C26.0526 11.7306 26.2204 11.9543 26.5 11.9543C26.9475 11.9543 27.2271 11.4509 27.2271 10.7798C27.283 10.3324 27.1152 10.1086 26.7797 10.1086Z" fill="#666666"/>
</svg>
