<svg width="32" height="21" viewBox="0 0 32 21" fill="none" xmlns="http://www.w3.org/2000/svg">
<path fill-rule="evenodd" clip-rule="evenodd" d="M8.86109 2.16675H6.2685C4.09257 2.16675 2.33331 3.92601 2.33331 6.05564V11.6112C2.33331 12.0279 2.65739 12.3519 3.02776 12.3519H4.55554C5.34257 12.3519 6.03702 11.7038 6.03702 10.8705V7.39823C6.03702 7.07416 6.31479 6.79638 6.63887 6.79638H7.28702C7.61109 6.79638 7.88887 7.07416 7.88887 7.39823V10.8705C7.88887 12.7223 6.40739 14.2038 4.55554 14.2038H3.02776C2.65739 14.2038 2.33331 14.5279 2.33331 14.8982V17.9538C2.33331 18.4167 2.74998 18.8334 3.21294 18.8334H5.80554C7.98146 18.8334 9.69442 17.0742 9.69442 14.9445V3.04638C9.74072 2.58341 9.32405 2.16675 8.86109 2.16675ZM18.1203 2.16675H15.5277C13.3518 2.16675 11.6388 3.92601 11.6388 6.05564V7.44453C11.6388 7.67601 11.8703 7.7686 12.0555 7.62971C12.7037 7.07416 13.537 6.79638 14.4166 6.79638H16.5463C16.9166 6.79638 17.1944 7.07416 17.1944 7.44453V8.00008C17.1944 8.37045 16.9166 8.64823 16.5463 8.64823H14.5092C13.537 8.64823 12.6574 9.34267 12.5648 10.3149C12.4259 11.426 13.3055 12.3519 14.3703 12.3519H16.5C16.8703 12.3519 17.1481 12.6297 17.1481 13.0001V13.5556C17.1481 13.926 16.8703 14.2038 16.5 14.2038H14.3703C13.4907 14.2038 12.6574 13.8797 12.0092 13.3705C11.824 13.2316 11.5925 13.3242 11.5925 13.5556V17.9538C11.5925 18.463 12.0092 18.8334 12.4722 18.8334H15.0648C17.2407 18.8334 18.9537 17.0742 18.9537 14.9445V3.04638C19 2.58341 18.5833 2.16675 18.1203 2.16675ZM24.787 2.16675H27.3796C27.8426 2.16675 28.2592 2.58341 28.2592 3.04638V14.8519C28.2592 16.9816 26.5463 18.7408 24.3703 18.7408H21.7778C21.3148 18.7408 20.8981 18.3705 20.8981 17.8612V14.6667C20.8981 14.389 21.1296 14.1575 21.4074 14.1575H24C25.2037 14.1575 26.2222 13.3242 26.4074 12.1667C26.4537 11.5649 26.3148 11.0556 26.037 10.5927C25.9907 10.5001 25.9907 10.4075 26.037 10.3149C26.3611 9.85193 26.5 9.34267 26.4074 8.74082C26.2222 7.58342 25.1574 6.75008 24 6.75008H21.4074C21.1296 6.75008 20.8981 6.5186 20.8981 6.24082V6.05564C20.8981 3.92601 22.6111 2.16675 24.787 2.16675ZM24.0926 11.426H21.3148C21.037 11.426 20.8518 11.6112 20.8518 11.8889C20.8518 12.1667 21.037 12.3519 21.3148 12.3519H24.0926C24.3704 12.3519 24.5555 12.1667 24.5555 11.8889C24.5555 11.6112 24.3704 11.426 24.0926 11.426ZM21.3148 8.64827H24.0926C24.3704 8.64827 24.5555 8.83346 24.5555 9.11124C24.5555 9.38902 24.3704 9.5742 24.0926 9.5742H21.3148C21.037 9.5742 20.8518 9.38902 20.8518 9.11124C20.8518 8.83346 21.037 8.64827 21.3148 8.64827Z" fill="#666666"/>
</svg>
