<svg width="56" height="21" viewBox="0 0 56 21" fill="none" xmlns="http://www.w3.org/2000/svg">
<path fill-rule="evenodd" clip-rule="evenodd" d="M20.3499 18.5563L22.9699 2.45493H27.1619L24.5417 18.5563H20.3499ZM12.8266 13.5293L16.8231 2.45493H21.3347L14.6653 18.5563H10.2979L6.68031 4.66219C4.252 3.2159 2.16669 2.79081 2.16669 2.79081L2.24551 2.5177H8.97522C10.8276 2.5177 11.0011 3.97087 11.0011 3.97087L12.4382 11.2255C12.4382 11.2255 12.3953 11.0951 12.3 10.8672L12.3542 11.1454L12.3539 11.1446L12.8266 13.5293ZM39.059 6.32697C37.2652 5.3385 33.1828 5.10458 33.1828 6.92498C33.1828 7.64815 34.1064 8.14553 35.2197 8.74501C36.9082 9.65421 39.0329 10.7983 39.0329 13.3211C39.0329 17.3517 34.7168 18.8334 31.8566 18.8334C28.9962 18.8334 27.1245 17.9237 27.1245 17.9237L27.7482 14.3091C29.4644 15.6869 34.6645 16.0772 34.6645 13.8931C34.6645 12.9754 33.641 12.4342 32.4541 11.8065C30.816 10.9402 28.8666 9.9093 28.8666 7.49699C28.8666 3.0765 33.8065 2.16675 35.8868 2.16675C37.811 2.16675 39.6571 2.86883 39.6571 2.86883L39.059 6.32697ZM46.9178 2.45493H50.2881L53.6441 18.5563H49.7952L49.3036 16.1648H43.9745L43.1005 18.5563H38.7314L44.9827 3.65487C44.9827 3.65487 45.3616 2.45493 46.9178 2.45493ZM47.3852 6.8351L45.1825 12.8606H48.6244L47.3852 6.8351Z" fill="#666666"/>
</svg>
